<?xml version="1.0" encoding="UTF-8" standalone="no"?>
<!-- Created with Inkscape (http://www.inkscape.org/) -->

<svg
   xmlns:dc="http://purl.org/dc/elements/1.1/"
   xmlns:cc="http://creativecommons.org/ns#"
   xmlns:rdf="http://www.w3.org/1999/02/22-rdf-syntax-ns#"
   xmlns:svg="http://www.w3.org/2000/svg"
   xmlns="http://www.w3.org/2000/svg"
   xmlns:sodipodi="http://sodipodi.sourceforge.net/DTD/sodipodi-0.dtd"
   xmlns:inkscape="http://www.inkscape.org/namespaces/inkscape"
   width="60.0269mm"
   height="60.0328mm"
   viewBox="0 0 60.0269 60.0328"
   version="1.1"
   id="svg4270"
   inkscape:version="0.92.1 r15371">
  <defs
     id="defs4264" />
  <sodipodi:namedview
     id="base"
     pagecolor="#ffffff"
     bordercolor="#666666"
     borderopacity="1.0"
     inkscape:pageopacity="0.0"
     inkscape:pageshadow="2"
     inkscape:zoom="0.64"
     inkscape:cx="-233.929"
     inkscape:cy="68.5645"
     inkscape:document-units="mm"
     inkscape:current-layer="layer1"
     showgrid="false"
     fit-margin-top="0"
     fit-margin-left="0"
     fit-margin-right="0"
     fit-margin-bottom="0"
     inkscape:window-width="1920"
     inkscape:window-height="1016"
     inkscape:window-x="0"
     inkscape:window-y="27"
     inkscape:window-maximized="1" />
  <metadata
     id="metadata4267">
    <rdf:RDF>
      <cc:Work
         rdf:about="">
        <dc:format>image/svg+xml</dc:format>
        <dc:type
           rdf:resource="http://purl.org/dc/dcmitype/StillImage" />
        <dc:title></dc:title>
      </cc:Work>
    </rdf:RDF>
  </metadata>
  <g
     inkscape:label="Camada 1"
     inkscape:groupmode="layer"
     id="layer1"
     transform="translate(-101.034,-98.3118)">
    <path
       id="path4592-4-0-27"
       d="m 131.041,109.704 c -10.279,0 -18.612,8.333 -18.612,18.623 0,10.28 8.333,18.624 18.612,18.624 10.291,0 18.624,-8.344 18.624,-18.624 0,-10.29 -8.333,-18.623 -18.624,-18.623 z m 0,4.531 c 7.786,0 14.105,6.305 14.105,14.092 0,7.786 -6.319,14.093 -14.105,14.093 -7.774,0 -14.092,-6.307 -14.092,-14.093 0,-7.787 6.318,-14.092 14.092,-14.092 z m 0,6.772 c -4.041,0 -7.32,3.279 -7.32,7.32 0,4.042 3.279,7.319 7.32,7.319 4.053,0 7.332,-3.277 7.332,-7.319 0,-4.041 -3.279,-7.32 -7.332,-7.32 z"
       clip-path="none"
       style="opacity:1;vector-effect:none;fill:#ffffff;fill-opacity:1;stroke:none;stroke-width:1.945262;stroke-linecap:butt;stroke-linejoin:miter;stroke-miterlimit:4;stroke-dasharray:none;stroke-dashoffset:0;stroke-opacity:1"
       inkscape:connector-curvature="0" />
  </g>
</svg>
